<?xml version="1.0" encoding="utf-8"?>
<!-- Generator: Adobe Illustrator 21.0.0, SVG Export Plug-In . SVG Version: 6.00 Build 0)  -->
<svg version="1.1" id="Capa_1" xmlns="http://www.w3.org/2000/svg" xmlns:xlink="http://www.w3.org/1999/xlink" x="0px" y="0px"
	 viewBox="0 0 80 80" style="enable-background:new 0 0 80 80;" xml:space="preserve">
<style type="text/css">
	.st0{fill:#ED2024;}
	.st1{fill:#FFFFFF;}
</style>
<circle class="st0" cx="40" cy="40" r="40"/>
<g>
	<g>
		<g>
			<path class="st1" d="M40,29.1c-3.3,0-7.6-0.3-11.8-1.7c-1.3-0.5-2.5-1-3.5-1.7c-1-0.7-1.6-1.4-1.6-2.2c0-0.8,0.5-1.6,1.6-2.3
				c1.5-1.1,3.4-1.8,6-2.4c3.3-0.7,6.5-1,9.6-1c3.8,0,7.6,0.5,11.3,1.5c1.6,0.5,3,1.1,4.1,1.9c1,0.7,1.6,1.5,1.6,2.3
				c0,0.8-0.6,1.5-1.6,2.3c-1.9,1.3-4.2,2-6.4,2.4C46.6,28.7,43.7,29,40,29.1z"/>
			<path class="st0" d="M40.4,18.3L40.4,18.3c3.8,0,7.5,0.5,11.1,1.5c1.6,0.4,2.9,1,3.9,1.8c0.9,0.6,1.4,1.3,1.4,1.9
				c0,0.6-0.5,1.2-1.4,1.9c-1.9,1.3-4.1,1.9-6.2,2.4c-2.7,0.6-5.6,0.9-9.2,0.9c-3.3,0-7.5-0.3-11.6-1.7c-1.3-0.4-2.4-1-3.4-1.6
				c-0.9-0.6-1.4-1.2-1.4-1.8c0-0.6,0.5-1.3,1.4-1.9c1.5-1,3.3-1.7,5.8-2.3C34.1,18.6,37.3,18.3,40.4,18.3 M40.4,17.3
				c-3.2,0-6.5,0.4-9.7,1c-2.2,0.5-4.3,1.1-6.2,2.4c-2.4,1.7-2.4,3.8,0,5.3c1.1,0.7,2.3,1.3,3.6,1.7c3.9,1.3,8,1.7,11.9,1.7
				c3.3,0,6.4-0.3,9.4-0.9c2.3-0.5,4.6-1.1,6.6-2.5c2.4-1.6,2.4-3.7,0-5.4c-1.3-0.9-2.7-1.5-4.3-1.9C48,17.8,44.2,17.3,40.4,17.3
				L40.4,17.3z"/>
		</g>
		<g>
			<path class="st1" d="M40.1,51.2c-3.8,0-7.6-0.5-11.2-1.5c-1.7-0.5-3-1.1-4.2-1.9c-1.1-0.8-1.6-1.7-1.5-2.9c0.1-1.5,0-3,0-4.5
				c0-0.5,0-1.1,0-1.6c2.6,1.8,5.4,2.5,7.9,3c3.1,0.6,6.2,0.9,9.3,0.9c3.6,0,7.3-0.4,10.8-1.3c1.2-0.3,2.5-0.7,3.6-1.2
				c0.8-0.4,1.6-0.8,2.3-1.2c0.1,0,0.2-0.1,0.3-0.1c0,0.5,0,1.1,0,1.6c0,1.5,0,3,0,4.5c0.1,1.2-0.4,2.1-1.5,2.9
				c-1.5,1-3.3,1.8-5.7,2.3C46.8,50.8,43.4,51.2,40.1,51.2z"/>
			<path class="st0" d="M56.8,39.7c0,0.2,0,0.5,0,0.7c0,1.5,0,3,0,4.5c0,1.1-0.3,1.8-1.3,2.5c-1.4,1-3.2,1.7-5.5,2.2
				c-3.3,0.7-6.7,1.1-9.9,1.1c-3.8,0-7.5-0.5-11.1-1.5c-1.6-0.4-2.9-1-4-1.8c-1-0.7-1.4-1.4-1.3-2.5c0.1-1.5,0-3,0-4.5
				c0-0.2,0-0.5,0-0.7c2.4,1.5,5,2.1,7.3,2.6c3.1,0.6,6.3,0.9,9.4,0.9c3.7,0,7.4-0.4,10.9-1.3c1.3-0.3,2.5-0.7,3.7-1.2
				C55.6,40.4,56.2,40,56.8,39.7 M22.7,37.8c0,0.3,0,0.5,0,0.7c0,2.1,0.1,4.2,0,6.4c-0.1,1.5,0.6,2.5,1.7,3.3c1.3,0.9,2.8,1.6,4.4,2
				c3.8,1,7.6,1.5,11.4,1.5c3.4,0,6.7-0.4,10.1-1.1c2.1-0.5,4.1-1.1,5.8-2.4c1.1-0.8,1.8-1.8,1.7-3.3c-0.1-2.1,0-4.2,0-6.4
				c0-0.2,0-0.4,0-0.5c-1.1,0.6-2.1,1.3-3.3,1.8c-1.1,0.5-2.3,0.9-3.5,1.2c-3.6,0.9-7.1,1.3-10.7,1.3c-3.1,0-6.1-0.3-9.2-0.9
				C28.1,40.7,25.3,39.9,22.7,37.8L22.7,37.8z"/>
		</g>
		<g>
			<path class="st1" d="M40.2,62.2c-3.6,0-7.1-0.4-10.5-1.3c-1.5-0.4-3-1.1-4.3-1.7c-0.5-0.2-1-0.7-1.6-1.3
				c-0.3-0.3-0.5-0.8-0.5-1.1c0-1.9,0-3.9,0-5.9l0-1.1c3.5,2.4,7.6,3.1,11.1,3.5c1.9,0.2,3.9,0.4,5.9,0.4c1.6,0,3.3-0.1,5-0.3
				c3.2-0.3,7-0.9,10.5-2.7c0.5-0.3,1.1-0.6,1.6-0.9c0,0.6,0,1.1,0,1.7c0,1.5,0,3,0,4.5c0,1.2-0.4,2.1-1.5,2.8
				c-1.5,1.1-3.3,1.8-5.8,2.3C46.7,61.9,43.4,62.2,40.2,62.2z"/>
			<path class="st0" d="M56.8,50.7c0,0.2,0,0.5,0,0.7c0,1.5,0,3,0,4.5c0,1-0.3,1.7-1.3,2.4c-1.4,1-3.2,1.7-5.6,2.3
				c-3.3,0.7-6.6,1.1-9.8,1.1c-3.5,0-7-0.4-10.4-1.3c-1.4-0.4-2.9-1-4.2-1.6c-0.4-0.2-0.9-0.6-1.5-1.2c-0.2-0.3-0.4-0.6-0.4-0.8
				c0-1.9,0-3.8,0-5.9c0-0.1,0-0.1,0-0.2c3.4,2,7.2,2.7,10.6,3.1c1.9,0.3,3.9,0.4,5.9,0.4c1.7,0,3.4-0.1,5.1-0.3
				c3.3-0.3,7.1-0.9,10.7-2.7C56.2,51.1,56.5,50.9,56.8,50.7 M22.7,48.9c0,2.7,0,5.3,0,8c0,0.5,0.3,1,0.7,1.4
				c0.5,0.6,1.1,1.1,1.8,1.4c1.4,0.7,2.8,1.3,4.3,1.7c3.5,0.9,7.1,1.3,10.7,1.3c3.3,0,6.7-0.4,10-1.1c2.1-0.5,4.2-1.1,6-2.4
				c1.1-0.8,1.8-1.8,1.7-3.3c-0.1-2.1,0-4.3,0-6.4c0-0.2,0-0.4,0-0.6c-0.8,0.5-1.5,1-2.3,1.4c-3.3,1.6-6.8,2.3-10.4,2.6
				c-1.7,0.2-3.3,0.3-5,0.3c-1.9,0-3.9-0.1-5.8-0.4C30.3,52.3,26.2,51.5,22.7,48.9L22.7,48.9z"/>
		</g>
		<g>
			<path class="st1" d="M40.2,40.2c-2.2,0-4.4-0.2-6.5-0.5c-2.3-0.3-4.9-0.8-7.4-2c-0.8-0.4-1.7-1-2.4-1.7c-0.4-0.3-0.6-0.9-0.6-1.3
				c-0.1-1.9-0.1-3.8,0-5.8l0-1.2c3.6,2.4,7.8,3.1,11.3,3.5c1.9,0.2,3.8,0.3,5.7,0.3c2.7,0,5.4-0.2,8.2-0.7c1.9-0.3,4.4-0.8,6.8-2
				c0.7-0.3,1.3-0.7,2-1.1c0.1,0,0.1-0.1,0.2-0.1l0,1.8c0,1.6,0,3.1,0,4.7c0,0.7-0.2,1.3-0.8,1.8c-0.9,0.9-2.1,1.5-3.1,1.9
				c-2.4,1-5.1,1.6-8.5,1.9C43.4,40.1,41.8,40.2,40.2,40.2z"/>
			<path class="st0" d="M56.8,28.7c0,0.3,0,0.6,0,0.9c0,1.6,0,3.1,0,4.7c0,0.6-0.2,1-0.6,1.5c-0.9,0.9-2,1.4-2.9,1.8
				c-2.3,0.9-5,1.5-8.3,1.9c-1.6,0.2-3.2,0.2-4.7,0.2c-2.2,0-4.3-0.2-6.5-0.5c-2.2-0.3-4.9-0.8-7.2-2c-0.8-0.4-1.6-0.9-2.3-1.6
				c-0.3-0.2-0.5-0.7-0.5-0.9c-0.1-1.9-0.1-3.8,0-5.8c0-0.1,0-0.2,0-0.3c3.5,2.1,7.4,2.7,10.8,3.1c1.9,0.2,3.9,0.4,5.8,0.4
				c2.7,0,5.5-0.2,8.2-0.7c1.9-0.3,4.5-0.9,6.9-2C55.9,29.2,56.4,29,56.8,28.7 M22.7,26.9c0,2.7,0,5.3,0,7.9c0,0.6,0.4,1.2,0.8,1.6
				c0.7,0.7,1.6,1.3,2.5,1.7c2.4,1.2,4.9,1.7,7.5,2.1c2.2,0.3,4.4,0.5,6.6,0.5c1.6,0,3.2-0.1,4.8-0.2c3-0.3,5.9-0.8,8.6-1.9
				c1.2-0.5,2.3-1.1,3.2-2c0.6-0.6,0.9-1.3,0.9-2.2c0-2.3,0-4.6,0-6.9c0-0.2,0-0.3,0-0.4c-0.9,0.5-1.8,1.1-2.8,1.6
				c-2.1,1-4.3,1.6-6.6,2c-2.7,0.5-5.4,0.7-8.1,0.7c-1.9,0-3.8-0.1-5.7-0.3C30.4,30.3,26.3,29.5,22.7,26.9L22.7,26.9z"/>
		</g>
	</g>
</g>
</svg>
