<?xml version="1.0" encoding="utf-8"?>
<!-- Generator: Adobe Illustrator 21.0.0, SVG Export Plug-In . SVG Version: 6.00 Build 0)  -->
<svg version="1.1" id="Capa_1" xmlns="http://www.w3.org/2000/svg" xmlns:xlink="http://www.w3.org/1999/xlink" x="0px" y="0px"
	 viewBox="0 0 80 80" style="enable-background:new 0 0 80 80;" xml:space="preserve">
<style type="text/css">
	.st0{fill:#ED2024;}
	.st1{fill:#FFFFFF;}
</style>
<circle class="st0" cx="40" cy="40" r="40"/>
<g>
	<path class="st1" d="M17.7,62.4c0.9-3.5,1.7-7,2.6-10.4c0-0.2,0.2-0.4,0.3-0.5C29.4,42.6,38.2,33.8,47,25c0.1-0.1,0.1-0.1,0.1-0.1
		c2.7,2.7,5.4,5.4,8.1,8.1c-0.1,0.1-0.3,0.2-0.4,0.3c-8.7,8.7-17.3,17.3-26,26c-0.2,0.2-0.6,0.4-0.9,0.5c-3.3,0.8-6.6,1.7-9.9,2.5
		C17.9,62.3,17.8,62.3,17.7,62.4z"/>
	<path class="st1" d="M58,30c-2.7-2.7-5.3-5.3-8.1-8.1c1.2-1.1,2.4-2.4,3.7-3.3c1.9-1.3,3.9-1.2,5.9-0.1c1.9,1.1,2.8,2.9,2.8,5.1
		c0,1.3-0.5,2.5-1.4,3.5C60,28.1,59,29.1,58,30z"/>
</g>
</svg>
