<?xml version="1.0" encoding="utf-8"?>
<!-- Generator: Adobe Illustrator 21.0.0, SVG Export Plug-In . SVG Version: 6.00 Build 0)  -->
<svg version="1.1" id="Capa_1" xmlns="http://www.w3.org/2000/svg" xmlns:xlink="http://www.w3.org/1999/xlink" x="0px" y="0px"
	 viewBox="0 0 80 80" style="enable-background:new 0 0 80 80;" xml:space="preserve">
<style type="text/css">
	.st0{fill:#ED2024;}
	.st1{fill:#FFFFFF;}
</style>
<g>
	<path class="st0" d="M29.8,40.6v8.1l0.7-0.3c5.5-1.6,7.6,5.6,2.1,7.2l-0.2,0l7.9,2.6l7.9-2.6l-0.2-0.1c-5.5-1.6-3.3-8.8,2.1-7.2
		l0.7,0.3v-8.1L40.4,44L29.8,40.6z"/>
	<path class="st0" d="M40,0C17.9,0,0,17.9,0,40c0,18.2,12.1,33.5,28.7,38.4V57.2l-6.7,1.9c-0.5,0.2-1,0.3-1.6,0.3
		c-2.4,0-4.3-1.9-4.3-4.3c0-0.9,0.3-1.7,0.7-2.4l10.8-14.8c1.2-1.6,2.8-3.4,6.3-3.4h13.1c3.5,0,5.1,1.8,6.3,3.4L64,52.7
		c0.5,0.7,0.7,1.5,0.7,2.4c0,2.4-1.9,4.3-4.3,4.3c-0.6,0-1.1-0.1-1.6-0.3l-6.7-1.9v20.9C68.3,73,80,57.9,80,40C80,17.9,62.1,0,40,0z
		 M40.5,32.6c-4.2,0-7.6-3.4-7.6-7.6c0-4.2,3.4-7.6,7.6-7.6s7.6,3.4,7.6,7.6C48.1,29.2,44.7,32.6,40.5,32.6z"/>
	<circle class="st1" cx="40.5" cy="25" r="7.6"/>
	<path class="st1" d="M52.1,78.1V57.2l6.7,1.9c0.5,0.2,1,0.3,1.6,0.3c2.4,0,4.3-1.9,4.3-4.3c0-0.9-0.3-1.7-0.7-2.4L53.2,37.9
		c-1.2-1.6-2.8-3.4-6.3-3.4H33.8c-3.5,0-5.1,1.8-6.3,3.4L16.8,52.7c-0.5,0.7-0.7,1.5-0.7,2.4c0,2.4,1.9,4.3,4.3,4.3
		c0.6,0,1.1-0.1,1.6-0.3l6.7-1.9v21.1 M51,48.7l-0.7-0.3c-5.5-1.6-7.6,5.6-2.1,7.2l0.2,0.1l-7.9,2.6l-7.9-2.6l0.2,0
		c5.5-1.6,3.3-8.8-2.1-7.2l-0.7,0.3v-8.1L40.4,44L51,40.6V48.7z"/>
</g>
</svg>
