<?xml version="1.0" encoding="utf-8"?>
<!-- Generator: Adobe Illustrator 21.0.0, SVG Export Plug-In . SVG Version: 6.00 Build 0)  -->
<svg version="1.1" id="Capa_1" xmlns="http://www.w3.org/2000/svg" xmlns:xlink="http://www.w3.org/1999/xlink" x="0px" y="0px"
	 viewBox="0 0 80 80" style="enable-background:new 0 0 80 80;" xml:space="preserve">
<style type="text/css">
	.st0{fill:#ED2024;}
	.st1{fill:#FFFFFF;}
</style>
<circle class="st0" cx="40" cy="40" r="40"/>
<g>
	<path class="st1" d="M49.9,17.6H30.1c-1.8,0-3.2,1.5-3.2,3.2v38.2c0,1.8,1.5,3.2,3.2,3.2h19.8c1.8,0,3.2-1.5,3.2-3.2V20.9
		C53.2,19.1,51.7,17.6,49.9,17.6z M35.9,19.6h8c0.6,0,1.1,0.5,1.1,1.1c0,0.6-0.5,1.1-1.1,1.1h-8c-0.6,0-1.1-0.5-1.1-1.1
		C34.8,20.1,35.3,19.6,35.9,19.6z M40,60c-1.2,0-2.1-0.9-2.1-2.1c0-1.2,0.9-2.1,2.1-2.1s2.1,0.9,2.1,2.1C42.1,59,41.1,60,40,60z
		 M50.1,53.3H29.9V23.9h20.2V53.3z"/>
</g>
</svg>
