<?xml version="1.0" encoding="utf-8"?>
<!-- Generator: Adobe Illustrator 21.0.0, SVG Export Plug-In . SVG Version: 6.00 Build 0)  -->
<svg version="1.1" id="Capa_1" xmlns="http://www.w3.org/2000/svg" xmlns:xlink="http://www.w3.org/1999/xlink" x="0px" y="0px"
	 viewBox="0 0 80 80" style="enable-background:new 0 0 80 80;" xml:space="preserve">
<style type="text/css">
	.st0{fill:#ED2024;}
	.st1{fill:#FFFFFF;}
</style>
<circle class="st0" cx="40" cy="40" r="40"/>
<g>
	<path class="st1" d="M25.2,31.5c-0.5-2.2-0.8-4.3-0.8-6.5c0-1.6,0.2-3.2,0.9-4.7c0.7-1.6,1.9-2.6,3.7-2.9c1.2-0.2,2.4,0.1,3.6,0.5
		c2,0.7,3.8,1.9,5.5,3.3c0.7,0.5,1.3,1.1,2,1.7c0.6-0.5,1.2-1,1.8-1.5c1.8-1.5,3.8-2.8,6.1-3.6c1.1-0.4,2.3-0.6,3.5-0.4
		c1.8,0.3,2.9,1.5,3.5,3.2c0.5,1.3,0.7,2.6,0.7,3.9c0.1,2.2-0.2,4.5-0.7,6.6c-0.1,0.3,0,0.4,0.3,0.4c2.3,0.7,4.6,1.7,6.6,3
		c0.9,0.6,1.7,1.3,2.5,2.2c1.8,2.1,1.7,4.5-0.1,6.6c-1.3,1.6-3,2.6-4.9,3.5c-1.4,0.6-2.9,1.2-4.3,1.8c0.1,0.4,0.2,0.8,0.2,1.3
		c0.4,1.9,0.6,3.8,0.5,5.7c-0.1,1.5-0.3,3-1,4.4c-1,1.9-2.7,2.8-4.8,2.5c-2.1-0.3-3.9-1.1-5.6-2.3c-1.3-0.9-2.6-2-3.9-3
		c-0.1-0.1-0.1-0.1-0.2-0.2c-0.6,0.5-1.2,1.1-1.9,1.6c-1.8,1.5-3.8,2.8-6.1,3.5c-1.1,0.4-2.2,0.5-3.3,0.4c-1.7-0.3-2.8-1.3-3.5-2.9
		c-0.6-1.4-0.8-2.9-0.9-4.4c-0.1-2.2,0.2-4.3,0.7-6.4c0-0.1,0-0.2,0.1-0.4c-0.8-0.3-1.5-0.5-2.2-0.8c-2.3-0.9-4.5-2-6.4-3.7
		c-0.5-0.4-0.9-1-1.3-1.5c-1.1-1.7-1.1-3.4,0-5.1c0.8-1.3,2-2.3,3.3-3.1c1.9-1.2,4-2.1,6.1-2.8C24.9,31.6,25,31.5,25.2,31.5z
		 M40,31.7c-1.5,0.1-3,0.1-4.5,0.2c-0.1,0-0.3,0.1-0.4,0.3c-1.7,2.4-3.1,5-4.4,7.6c-0.1,0.1-0.1,0.3,0,0.5c1.3,2.7,2.7,5.2,4.4,7.7
		c0.1,0.1,0.2,0.2,0.3,0.2c1,0.1,2,0.2,2.9,0.1c2,0,3.9-0.1,5.9-0.2c0.2,0,0.4-0.1,0.5-0.3c1.7-2.4,3.1-5,4.4-7.6
		c0.1-0.1,0.1-0.4,0-0.5c-1.3-2.7-2.7-5.2-4.4-7.6c-0.1-0.1-0.2-0.2-0.4-0.2C43,31.8,41.5,31.7,40,31.7z M54.3,46.3
		c1.8-0.5,3.5-1.2,5.1-2.1c1.2-0.7,2.2-1.4,3.1-2.4c1-1.2,1-2.2,0-3.4c-0.6-0.7-1.3-1.3-2-1.8c-1.8-1.2-3.7-2-5.8-2.7
		c-0.2-0.1-0.3-0.1-0.4-0.1c-0.8,2.1-1.6,4.1-2.3,6.1c0,0.1,0,0.3,0,0.4c0.4,1.1,0.9,2.2,1.3,3.3C53.7,44.4,53.9,45.4,54.3,46.3z
		 M27.5,49.2c0,0.1-0.1,0.1-0.1,0.2c-0.5,2.4-0.8,4.9-0.5,7.3c0.1,0.9,0.3,1.8,0.8,2.6c0.3,0.6,0.8,0.9,1.5,1
		c0.8,0.1,1.6-0.1,2.4-0.3c1.6-0.5,3-1.4,4.3-2.4c0.8-0.6,1.6-1.3,2.5-2c-0.1-0.2-0.2-0.3-0.3-0.4c-1.3-1.5-2.5-3.1-3.8-4.6
		c-0.2-0.2-0.4-0.3-0.6-0.3c-1-0.1-1.9-0.2-2.9-0.4C29.7,49.7,28.6,49.4,27.5,49.2z M41.7,24.4c1.4,1.8,2.8,3.5,4.2,5.1
		c0.1,0.1,0.2,0.1,0.3,0.1c2,0.4,4.1,0.7,6.1,1.1c0.2,0,0.3,0,0.3-0.2c0.5-2.2,0.7-4.4,0.6-6.6c-0.1-1-0.3-2-0.7-3
		c-0.3-0.7-0.8-1.2-1.6-1.3c-0.6-0.1-1.3,0-1.9,0.2C46.1,20.7,43.9,22.5,41.7,24.4z M25.7,33.7c-2,0.6-4,1.4-5.8,2.6
		c-1,0.6-2,1.4-2.6,2.4c-0.7,1-0.7,1.8,0,2.8c0.3,0.4,0.6,0.8,1,1.1c1.6,1.4,3.5,2.4,5.5,3.1c0.6,0.2,1.3,0.4,1.9,0.7
		c0-0.1,0.1-0.1,0.1-0.1c0.7-2,1.4-3.9,2.1-5.9c0.1-0.2,0.1-0.4,0-0.5c-0.4-1.1-0.8-2.1-1.2-3.1C26.4,35.7,26.1,34.7,25.7,33.7z
		 M41.8,55.6c1.2,1.1,2.6,2.2,4.1,3.1c1.2,0.8,2.5,1.4,4,1.6c1.3,0.2,2.2,0,2.8-1.5c0.3-0.6,0.4-1.2,0.5-1.9
		c0.3-1.4,0.2-2.8,0.1-4.1c-0.1-1.2-0.4-2.4-0.5-3.6c-0.1,0-0.1,0-0.2,0c-2.1,0.5-4.2,0.9-6.3,1.1c-0.1,0-0.3,0.1-0.3,0.2
		C44.5,52.1,43.1,53.8,41.8,55.6z M27.4,30.8c0.3-0.1,0.6-0.1,0.8-0.2c1.8-0.3,3.7-0.6,5.5-0.9c0.2,0,0.4-0.1,0.6-0.3
		c0.8-1.1,1.7-2.1,2.5-3.2c0.5-0.6,1-1.1,1.5-1.7c-1.7-1.5-3.4-2.9-5.4-3.9c-1-0.5-2-0.9-3-0.9C28.7,19.6,28,20,27.5,21
		c-0.3,0.6-0.5,1.3-0.6,2C26.5,25.7,26.9,28.2,27.4,30.8z M40,26.1c-1,1.1-1.9,2.2-2.9,3.4c2,0,3.8,0,5.8,0
		C41.9,28.3,41,27.2,40,26.1z M42.9,50.6c-2,0-3.8,0-5.8,0c1,1.1,1.9,2.2,2.9,3.3C41,52.8,41.9,51.7,42.9,50.6z M28,33.1
		c0.5,1.4,1,2.8,1.4,4.1c1-1.7,1.9-3.3,2.9-5C30.8,32.5,29.4,32.8,28,33.1z M50.6,42.8c-1,1.7-1.9,3.3-2.9,5
		c1.4-0.3,2.8-0.6,4.3-0.8C51.6,45.5,51.1,44.2,50.6,42.8z M32.3,47.8c-1-1.7-1.9-3.3-2.9-4.9c-0.5,1.4-0.9,2.7-1.4,4.1
		C29.4,47.2,30.8,47.5,32.3,47.8z M47.8,32.2c0.9,1.6,1.8,3.1,2.6,4.6c0,0.1,0.1,0.2,0.2,0.3c0.5-1.4,0.9-2.8,1.4-4.2
		C50.6,32.8,49.2,32.5,47.8,32.2z"/>
	<path class="st1" d="M40,44.7c-2.6,0-4.7-2.1-4.7-4.7c0-2.6,2.1-4.8,4.7-4.8c2.6,0,4.8,2.1,4.8,4.7C44.7,42.6,42.6,44.7,40,44.7z"
		/>
</g>
</svg>
